# xmcd CD database file
#
# Track frame offsets:
#	150
#	20470
#	35580
#	51977
#	69723
#	92683
#	113513
#	130686
#	163221
#	182704
#	201768
#	216613
#
# Disc length: 3230 seconds
#
# Revision: 0
# Processed by: cddbd v1.5.1PL2 Copyright (c) Steve Scherf et al.
# Submitted via: CDex 1.40Beta9
#
DISCID=af0c9c0c
DTITLE=Hundred Year Flood - Blue Angel
DYEAR=2006
DGENRE=Country
TTITLE0=Love You Still
TTITLE1=Don't Go
TTITLE2=Take a Chance
TTITLE3=Kingdom of Cold
TTITLE4=Pour Over Me
TTITLE5=Blue Angel
TTITLE6=The Ditch
TTITLE7=The Barren Fields
TTITLE8=Champion Dog
TTITLE9=Shotgun John
TTITLE10=Unoriginal
TTITLE11=Come With Me
EXTD=YEAR: 2006 ID3G: 2
EXTT0=
EXTT1=
EXTT2=
EXTT3=
EXTT4=
EXTT5=
EXTT6=
EXTT7=
EXTT8=
EXTT9=
EXTT10=
EXTT11=
PLAYORDER=
